<?xml version="1.0" encoding="UTF-8" standalone="no"?>
<!-- Creator: CorelDRAW -->

<svg
   xmlns:dc="http://purl.org/dc/elements/1.1/"
   xmlns:cc="http://creativecommons.org/ns#"
   xmlns:rdf="http://www.w3.org/1999/02/22-rdf-syntax-ns#"
   xmlns:svg="http://www.w3.org/2000/svg"
   xmlns="http://www.w3.org/2000/svg"
   xmlns:sodipodi="http://sodipodi.sourceforge.net/DTD/sodipodi-0.dtd"
   xmlns:inkscape="http://www.inkscape.org/namespaces/inkscape"
   xml:space="preserve"
   width="11in"
   height="8.5in"
   style="shape-rendering:geometricPrecision; text-rendering:geometricPrecision; image-rendering:optimizeQuality; fill-rule:evenodd; clip-rule:evenodd"
   viewBox="0 0 11 8.5"
   id="svg2"
   version="1.1"
   inkscape:version="0.48.2 r9819"
   sodipodi:docname="boundis blue_home.png"><metadata
   id="metadata26"><rdf:RDF><cc:Work
       rdf:about=""><dc:format>image/svg+xml</dc:format><dc:type
         rdf:resource="http://purl.org/dc/dcmitype/StillImage" /><dc:title></dc:title></cc:Work></rdf:RDF></metadata><sodipodi:namedview
   pagecolor="#ffffff"
   bordercolor="#666666"
   borderopacity="1"
   objecttolerance="10"
   gridtolerance="10"
   guidetolerance="10"
   inkscape:pageopacity="0"
   inkscape:pageshadow="2"
   inkscape:window-width="1280"
   inkscape:window-height="683"
   id="namedview24"
   showgrid="false"
   inkscape:zoom="0.45254834"
   inkscape:cx="438.30763"
   inkscape:cy="377.78637"
   inkscape:window-x="0"
   inkscape:window-y="0"
   inkscape:window-maximized="1"
   inkscape:current-layer="svg2" />
 <defs
   id="defs4">
  <style
   type="text/css"
   id="style6">
   
    .fil0 {fill:none}
    .fil3 {fill:#21B0F8}
    .fil2 {fill:#95CD00}
    .fil1 {fill:#454647;fill-rule:nonzero}
   
  </style>
 </defs>
 <g
   id="Layer_x0020_1">
  <metadata
   id="CorelCorpID_0Corel-Layer" />
  <polygon
   class="fil0"
   points="-0,0 11,0 11,8.5 -0,8.5 "
   id="polygon10" />
 </g>
 <g
   id="Layer_x0020_2"
   transform="matrix(0.38900347,0,0,0.38900347,1.4403833,3.6219992)">
  <metadata
   id="CorelCorpID_1Corel-Layer" />
  <path
   class="fil1"
   d="m 2.12707,6.56187 0.205154,0 c 0.159102,0 0.292142,0.056134 0.399193,0.168366 0.107047,0.112268 0.160579,0.249402 0.160579,0.411476 0,0.165028 -0.054272,0.304783 -0.162795,0.419264 C 2.616213,7.678429 2.474225,7.737145 2.30324,7.737145 2.132256,7.737145 1.991023,7.6776726 1.879516,7.558728 1.769496,7.444263 1.714488,7.302275 1.714488,7.132783 l 0,-1.08162 0.294374,0 0,1.08162 c 0,0.087716 0.028614,0.162795 0.085854,0.22524 0.05724,0.062445 0.126748,0.093673 0.208524,0.093673 0.08176,0 0.151268,-0.030106 0.208524,-0.090335 C 2.568988,7.301152 2.597618,7.227936 2.597618,7.141711 2.597618,7.056967 2.568622,6.986333 2.510642,6.929849 2.452662,6.873345 2.381292,6.845101 2.296548,6.845101 l -0.169476,0 0,-0.283232 z M 8.66565,7.254685 C 8.570548,7.254685 8.488406,7.220901 8.420918,7.153803 8.353386,7.085886 8.320103,7.003177 8.320103,6.907433 c 0,-0.094492 0.033992,-0.176091 0.100626,-0.24274 C 8.4874259,6.5957639 8.569796,6.56187 8.66565,6.56187 l 0.579071,0 0,0.237154 -0.579071,0 c -0.014787,0 -0.029319,0.00263 -0.043173,0.00828 C 8.609099,6.812654 8.597331,6.82015 8.587166,6.830312 8.576989,6.840509 8.569473,6.852277 8.564111,6.865765 8.558671,6.87906 8.555871,6.89306 8.555871,6.90743 c 0,0.030862 0.010276,0.056567 0.031677,0.078839 0.021406,0.022236 0.047256,0.032626 0.078098,0.032626 l 0.272591,0 c 0.095134,0 0.177323,0.033575 0.244551,0.100768 0.068193,0.067118 0.102713,0.14915 0.102713,0.244815 0,0.09563 -0.035035,0.177469 -0.102583,0.24502 C 9.115627,7.676789 9.033335,7.71038 8.938237,7.71038 l -0.577354,0 0,-0.237154 0.577689,0 c 0.014854,0 0.029303,-0.00263 0.04313,-0.00828 0.013421,-0.00537 0.025335,-0.012909 0.035677,-0.022673 0.010067,-0.00981 0.017437,-0.021067 0.022752,-0.034087 0.00562,-0.013795 0.00822,-0.0285 0.00822,-0.04337 0,-0.030555 -0.011579,-0.05565 -0.033287,-0.077358 C 8.994001,7.265604 8.968918,7.254686 8.938572,7.254686 l -0.272925,0 z m -0.460047,-0.817701 -0.296591,0 0,-0.165028 c 0,-0.041634 0.014496,-0.076575 0.04348,-0.104815 0.028996,-0.028244 0.064303,-0.042374 0.105937,-0.042374 0.040126,0 0.074697,0.01413 0.103693,0.042374 0.029,0.02824 0.04348,0.063181 0.04348,0.104815 l 0,0.165028 z m 0,0.124886 0,1.14851 -0.294378,0 0,-1.14851 0.294378,0 z m -0.86128,0 0,0.283232 -0.169488,0 c -0.084728,0 -0.156102,0.028244 -0.214079,0.084748 -0.05798,0.056484 -0.08698,0.127118 -0.08698,0.211862 0,0.086224 0.02863,0.159441 0.085854,0.21965 0.05724,0.060228 0.126748,0.090335 0.208524,0.090335 0.081776,0 0.151283,-0.031228 0.208508,-0.093673 0.05724,-0.062445 0.08587,-0.137524 0.08587,-0.22524 l 0,-1.08162 0.294362,0 0,1.08162 c 0,0.169492 -0.054992,0.31148 -0.165012,0.425945 C 7.48037,7.677674 7.339138,7.737146 7.168154,7.737146 6.99717,7.737146 6.855922,7.679166 6.74443,7.563209 6.632918,7.447233 6.57717,7.30674 6.57717,7.141713 6.57717,6.979638 6.631072,6.842504 6.738855,6.730237 6.846642,6.618005 6.980072,6.561871 7.139158,6.561871 l 0.205165,0 z m -1.88381,0.483937 c 0,-0.148665 0.047575,-0.271335 0.142728,-0.36798 0.09515,-0.096626 0.220035,-0.144957 0.374673,-0.144957 0.157579,0 0.283217,0.047575 0.376874,0.142744 0.089209,0.093653 0.133815,0.217047 0.133815,0.370193 l 0,0.664575 -0.294378,0 0,-0.671268 c 0,-0.145697 -0.07211,-0.218543 -0.216311,-0.218543 -0.065429,0 -0.118945,0.020437 -0.160579,0.061319 C 5.775701,6.922784 5.75489,6.975193 5.75489,7.039114 l 0,0.671268 -0.294378,0 0,-0.664575 z M 5.312509,7.224224 c 0,0.148669 -0.047579,0.271323 -0.142744,0.367965 C 5.074631,7.688835 4.949745,7.737146 4.795108,7.737146 4.637514,7.737146 4.513014,7.689941 4.421573,7.595548 4.3301321,7.5011346 4.284419,7.377355 4.284419,7.224225 l 0,-0.662354 0.294378,0 0,0.671268 c 0,0.145697 0.07211,0.218559 0.216311,0.218559 0.065429,0 0.118945,-0.020441 0.160579,-0.061335 C 4.997305,7.349481 5.018132,7.297076 5.018132,7.233139 l 0,-0.671268 0.294378,0 0,0.662354 z M 3.573199,6.53287 c 0.160563,0 0.29735,0.05798 0.410339,0.173957 0.113004,0.115976 0.169488,0.259437 0.169488,0.430421 0,0.169492 -0.056484,0.311846 -0.169488,0.427067 -0.112988,0.11522 -0.249776,0.172831 -0.410339,0.172831 -0.160563,0 -0.296976,-0.05724 -0.409228,-0.17172 C 3.051723,7.450942 2.995589,7.308217 2.995589,7.137249 2.995589,6.966265 3.051723,6.822804 3.163971,6.706828 3.276223,6.590852 3.412636,6.532871 3.573199,6.532871 z m 0,0.934433 c 0.078791,0 0.145713,-0.030843 0.20072,-0.092547 0.054996,-0.061705 0.0825,-0.140126 0.0825,-0.235276 0,-0.098138 -0.027504,-0.178787 -0.0825,-0.241969 C 3.718911,6.834314 3.65199,6.802716 3.573199,6.802716 3.494396,6.802716 3.427506,6.834314 3.372494,6.897511 3.31747,6.960692 3.289966,7.041342 3.289966,7.13948 c 0,0.09515 0.027504,0.173571 0.082528,0.235276 0.055012,0.061705 0.121902,0.092547 0.200705,0.092547 z"
   id="path14"
   inkscape:connector-curvature="0"
   style="fill:#454647;fill-rule:nonzero" />
 </g>
 <g
   id="Layer_x0020_3"
   transform="matrix(0.18767865,0,0,0.18767865,2.6390613,4.8219377)">
  <metadata
   id="CorelCorpID_2Corel-Layer" />
  <path
   class="fil2"
   d="m 5.7327,2.63246 c 0,-0.301244 -0.244252,-0.545496 -0.545496,-0.545496 -0.300669,0 -0.544717,0.243374 -0.545492,0.544043 l -7.9e-6,8.386e-4 c -3.9e-6,8.779e-4 0,-7.362e-4 0,6.142e-4 0,0.301248 0.244252,0.5455 0.5455,0.5455 0.301252,0 0.545496,-0.244252 0.545496,-0.5455 z"
   id="path18"
   inkscape:connector-curvature="0"
   style="fill:#95cd00" />
 </g>
 <g
   id="Layer_x0020_4"
   transform="matrix(0.18767865,0,0,0.18767865,2.6390613,4.8219377)">
  <metadata
   id="CorelCorpID_3Corel-Layer" />
  <path
   class="fil3"
   d="m 5.1872,0.762854 c 1.02117,0 1.8493,0.82813 1.8493,1.8493 0,0.816335 -0.636098,1.44147 -1.07773,2.07587 L 5.187195,5.796374 4.415624,4.688024 C 3.97399,4.053626 3.337894,3.428484 3.337894,2.612154 c 0,-0.557138 0.246535,-1.05679 0.636406,-1.39586 l 0,1.41617 c 0,0.66972 0.543173,1.2129 1.21289,1.2129 0.669717,0 1.21289,-0.543185 1.21289,-1.2129 0,-0.669717 -0.543177,-1.21289 -1.21289,-1.21289 -0.191236,0 -0.377461,0.04461 -0.545492,0.12935 l 0,-0.704205 C 4.814131,0.7915379 4.997316,0.7628607 5.18719,0.7628607 z"
   id="path22"
   inkscape:connector-curvature="0"
   style="fill:#21b0f8" />
 </g>
</svg>